<svg width="25" height="24" viewBox="0 0 25 24" fill="none" xmlns="http://www.w3.org/2000/svg">
<g clip-path="url(#clip0_414_148)">
<path d="M21.2867 0H4.48672C2.49849 0 0.886719 1.61177 0.886719 3.6V20.4C0.886719 22.3882 2.49849 24 4.48672 24H21.2867C23.2749 24 24.8867 22.3882 24.8867 20.4V3.6C24.8867 1.61177 23.2749 0 21.2867 0Z" fill="#373737"/>
<path d="M16.5897 23.3924C17.2459 23.3924 17.1522 24.1893 17.1522 24.1893H8.62094C8.62094 24.1893 8.52719 23.3924 9.18344 23.3924C9.79282 23.3924 9.93344 23.1111 9.93344 22.8299L9.88657 20.4861C6.55844 21.2361 5.85532 19.1736 5.85532 19.1736C5.29282 17.7674 4.54282 17.4393 4.54282 17.4393C3.41782 16.6893 4.58969 16.6893 4.58969 16.6893C5.80844 16.783 6.46469 17.908 6.46469 17.908C7.49594 19.7361 9.23032 19.2205 9.93344 18.9393C10.0272 18.1424 10.3553 17.6268 10.6834 17.2986C8.01157 17.0174 5.24594 15.9861 5.24594 11.3924C5.24594 10.0799 5.71469 9.00177 6.46469 8.15802C6.32407 7.87677 5.94907 6.65802 6.60532 5.0174C6.60532 5.0174 7.58969 4.68927 9.88657 6.23615C11.8553 5.67365 13.9178 5.67365 15.8866 6.23615C18.1834 4.68927 19.1678 5.0174 19.1678 5.0174C19.8241 6.65802 19.4491 7.87677 19.3084 8.15802C20.0584 9.00177 20.5272 10.0799 20.5272 11.3924C20.5272 15.9861 17.7147 17.0174 15.0428 17.2986C15.5116 17.6736 15.8866 18.4236 15.8866 19.5486L15.8397 22.8299C15.8397 23.1111 15.9803 23.3924 16.5897 23.3924Z" fill="white"/>
</g>
<defs>
<clipPath id="clip0_414_148">
<rect width="24" height="24" fill="white" transform="translate(0.886719)"/>
</clipPath>
</defs>
</svg>
