<svg width="25" height="24" viewBox="0 0 25 24" fill="none" xmlns="http://www.w3.org/2000/svg">
<g clip-path="url(#clip0_414_137)">
<path d="M21.2867 0H4.48672C2.49849 0 0.886719 1.61177 0.886719 3.6V20.4C0.886719 22.3882 2.49849 24 4.48672 24H21.2867C23.2749 24 24.8867 22.3882 24.8867 20.4V3.6C24.8867 1.61177 23.2749 0 21.2867 0Z" fill="#373737"/>
<path d="M16.3086 4.78125H9.46484C7.36789 4.78125 5.66797 6.48117 5.66797 8.57812V15.4219C5.66797 17.5188 7.36789 19.2188 9.46484 19.2188H16.3086C18.4056 19.2188 20.1055 17.5188 20.1055 15.4219V8.57812C20.1055 6.48117 18.4056 4.78125 16.3086 4.78125Z" stroke="white" stroke-width="1.40625"/>
<path d="M12.8867 15.375C14.7507 15.375 16.2617 13.864 16.2617 12C16.2617 10.136 14.7507 8.625 12.8867 8.625C11.0228 8.625 9.51172 10.136 9.51172 12C9.51172 13.864 11.0228 15.375 12.8867 15.375Z" stroke="white" stroke-width="1.40625"/>
<path d="M17.1523 8.01562C17.3077 8.01562 17.4336 7.88971 17.4336 7.73438C17.4336 7.57904 17.3077 7.45312 17.1523 7.45312C16.997 7.45312 16.8711 7.57904 16.8711 7.73438C16.8711 7.88971 16.997 8.01562 17.1523 8.01562Z" stroke="white" stroke-width="1.40625"/>
</g>
<defs>
<clipPath id="clip0_414_137">
<rect width="24" height="24" fill="white" transform="translate(0.886719)"/>
</clipPath>
</defs>
</svg>
