<svg width="25" height="24" viewBox="0 0 25 24" fill="none" xmlns="http://www.w3.org/2000/svg">
<g clip-path="url(#clip0_414_132)">
<path d="M21.2867 0H4.48672C2.49849 0 0.886719 1.61177 0.886719 3.6V20.4C0.886719 22.3882 2.49849 24 4.48672 24H21.2867C23.2749 24 24.8867 22.3882 24.8867 20.4V3.6C24.8867 1.61177 23.2749 0 21.2867 0Z" fill="#373737"/>
<path d="M7.54297 8.20312C8.50084 8.20312 9.27734 7.42662 9.27734 6.46875C9.27734 5.51088 8.50084 4.73438 7.54297 4.73438C6.5851 4.73438 5.80859 5.51088 5.80859 6.46875C5.80859 7.42662 6.5851 8.20312 7.54297 8.20312Z" fill="white"/>
<path d="M12.3242 9.09375V18.375V9.09375ZM7.54297 9.09375V18.375V9.09375Z" fill="white"/>
<path d="M12.3242 9.09375V18.375M7.54297 9.09375V18.375" stroke="white" stroke-width="3.09375"/>
<path d="M13.8242 13.2188C13.8242 12.2812 14.4336 11.3438 15.5117 11.3438C16.6367 11.3438 17.0586 12.1875 17.0586 13.4531V18.375H20.1523V13.0781C20.1523 10.2188 18.6523 8.90625 16.5898 8.90625C14.9961 8.90625 14.1992 9.79688 13.8242 10.4062" fill="white"/>
</g>
<defs>
<clipPath id="clip0_414_132">
<rect width="24" height="24" fill="white" transform="translate(0.886719)"/>
</clipPath>
</defs>
</svg>
