<svg width="25" height="24" viewBox="0 0 25 24" fill="none" xmlns="http://www.w3.org/2000/svg">
<g clip-path="url(#clip0_414_145)">
<path d="M21.2867 0H4.48672C2.49849 0 0.886719 1.61177 0.886719 3.6V20.4C0.886719 22.3882 2.49849 24 4.48672 24H21.2867C23.2749 24 24.8867 22.3882 24.8867 20.4V3.6C24.8867 1.61177 23.2749 0 21.2867 0Z" fill="#373737"/>
<path d="M13.3086 3.04688C8.43359 3.04688 5.94922 6.5625 5.94922 9.51562C5.94922 11.25 6.60547 12.8438 8.05859 13.4062C8.29297 13.5 8.52734 13.4062 8.62109 13.1719L8.76172 12.3281C8.85547 12.0469 8.80859 12 8.66797 11.7656C8.24609 11.25 7.96484 10.6406 7.96484 9.75C7.96484 7.125 9.88672 4.78125 13.0273 4.78125C15.8398 4.78125 17.3398 6.51562 17.3398 8.76562C17.3398 11.7656 16.0273 14.2031 14.0586 14.2031C12.9805 14.2031 12.1836 13.3594 12.4648 12.2344C12.7461 10.9688 13.3555 9.5625 13.3555 8.625C13.3555 7.78125 12.9336 7.03125 11.9492 7.03125C10.8242 7.03125 9.98047 8.20312 9.98047 9.75C9.98047 10.6875 10.3086 11.3438 10.3086 11.3438L8.94922 16.9688C8.74636 18.3078 8.77808 19.6719 9.04297 21L9.18359 20.9531C9.27734 20.8125 10.6367 19.2188 11.0586 17.5781L11.8086 14.7188C12.1367 15.4219 13.168 16.0312 14.293 16.0312C17.6211 16.0312 19.8711 13.0312 19.8711 8.95312C19.8711 5.85938 17.2461 3.04688 13.3086 3.04688Z" fill="white"/>
</g>
<defs>
<clipPath id="clip0_414_145">
<rect width="24" height="24" fill="white" transform="translate(0.886719)"/>
</clipPath>
</defs>
</svg>
