<svg width="25" height="24" viewBox="0 0 25 24" fill="none" xmlns="http://www.w3.org/2000/svg">
<g clip-path="url(#clip0_414_128)">
<path d="M21.2867 0H4.48672C2.49849 0 0.886719 1.61177 0.886719 3.6V20.4C0.886719 22.3882 2.49849 24 4.48672 24H21.2867C23.2749 24 24.8867 22.3882 24.8867 20.4V3.6C24.8867 1.61177 23.2749 0 21.2867 0Z" fill="#4E6E58"/>
<path d="M17.6305 13.9187C16.8336 13.9187 16.0836 13.5812 15.4086 13.0328L15.5727 12.2547L15.5773 12.2266C15.7273 11.4016 16.1914 10.0141 17.6305 10.0141C18.7086 10.0141 19.5852 10.8906 19.5852 11.9688C19.5852 13.0469 18.7086 13.9187 17.6305 13.9187ZM17.6305 8.03594C15.793 8.03594 14.3727 9.22656 13.7914 11.1906C12.9102 9.86406 12.2398 8.275 11.8508 6.93437H9.87266V12.0766C9.87266 13.0938 9.04766 13.9187 8.03047 13.9187C7.01328 13.9187 6.18828 13.0938 6.18828 12.0766V6.92969H4.21484V12.0719C4.21484 14.1766 5.92578 15.9062 8.03047 15.9062C10.1352 15.9062 11.8461 14.1766 11.8461 12.0719V11.2094C12.2305 12.0109 12.6992 12.8219 13.2711 13.5344L12.0617 19.225H14.082L14.9586 15.1C15.7273 15.5922 16.6086 15.9016 17.6211 15.9016C19.7867 15.9016 21.5492 14.1297 21.5492 11.9594C21.5539 9.79844 19.7961 8.03594 17.6305 8.03594Z" fill="white"/>
</g>
<defs>
<clipPath id="clip0_414_128">
<rect width="24" height="24" fill="white" transform="translate(0.886719)"/>
</clipPath>
</defs>
</svg>
