<svg width="232" height="53" viewBox="0 0 232 53" fill="none" xmlns="http://www.w3.org/2000/svg">
<path fill-rule="evenodd" clip-rule="evenodd" d="M51.615 2.50919C51.2335 3.45236 51.2433 4.74537 51.3833 5.77743L51.3921 5.8425L42.6548 12.9488C42.9683 13.3395 43.409 13.9344 43.7978 14.5575C44.1633 15.1432 44.4926 15.7684 44.6183 16.2756L53.7939 8.15178L53.8544 8.16772C56.1518 8.773 57.587 8.29122 58.2813 7.53164C58.9774 6.77012 58.9538 5.71182 58.3112 5.06755L58.3088 5.06513L58.3065 5.06258C58.0602 4.78505 57.583 4.62375 57.0557 4.54331C56.5355 4.46397 55.9974 4.46764 55.6627 4.49543L55.519 4.50736L55.5369 4.36434C55.637 3.5607 55.5847 3.06201 55.4866 2.67652C55.3211 2.02552 54.8023 1.47726 54.1564 1.32694C53.4342 1.15888 52.8942 1.2304 52.4913 1.44816C52.0876 1.66629 51.8047 2.04022 51.615 2.50919ZM44.4029 16.3816H29.9959V16.6157H44.53C45.6533 16.8668 47.3525 17.295 48.8161 17.7667C49.551 18.0035 50.223 18.2503 50.7321 18.4899C50.9868 18.6099 51.1973 18.7264 51.3534 18.8373C51.4153 18.8812 51.4664 18.9226 51.5076 18.9613H29.9959V19.1954H44.6034C44.6358 22.6724 43.2202 28.3941 38.7761 31.7528C38.3515 32.0736 37.8993 32.373 37.418 32.6468C36.4867 33.1767 35.446 33.6114 34.2856 33.9216C33.0066 34.2635 31.5814 34.4543 29.9959 34.4543H29.8789V40.6011L29.988 40.6085C30.986 40.6765 32.7357 40.6318 34.5181 40.2418C35.8255 39.9557 37.1588 39.4821 38.2262 38.7239C38.179 39.8693 37.7505 41.4737 36.6012 42.8247C35.3749 44.2662 33.3185 45.4305 29.9959 45.4305V45.6646C33.3793 45.6646 35.5039 44.4759 36.7795 42.9763C38.0505 41.4822 38.4693 39.6905 38.4647 38.4908C38.4917 37.7933 38.4913 36.766 38.4149 35.7627L51.247 46.8898C50.5999 48.301 50.8936 49.7409 51.6317 50.6848C52.3833 51.646 53.6126 52.1062 54.7715 51.4613C55.2874 51.1742 55.6695 50.694 55.8902 50.156C56.0817 49.6891 56.2138 49.0982 56.0431 48.5615C56.3164 48.5714 56.6657 48.5693 57.0206 48.5121C57.4569 48.4419 57.9153 48.2864 58.2494 47.9539C59.1469 47.1584 59.3902 45.8892 58.7206 45.0104C58.0558 44.1377 56.5422 43.7159 54.062 44.463L39.0337 31.8504C43.4641 28.4216 44.8693 22.6874 44.8375 19.1954H51.9159L51.8486 19.0334C51.7909 18.8946 51.6572 18.7658 51.4889 18.6464C51.3169 18.5244 51.0927 18.401 50.8318 18.2782C50.3095 18.0322 49.6264 17.7819 48.8878 17.5439C47.5043 17.098 45.914 16.6915 44.7915 16.4349L53.8555 8.40985C56.1656 9.00342 57.6856 8.53027 58.4541 7.68956C59.2267 6.84436 59.2151 5.64488 58.4792 4.90463C58.1738 4.56272 57.624 4.39324 57.091 4.31193C56.618 4.23978 56.1333 4.2336 55.7855 4.25251C55.866 3.50497 55.8137 3.013 55.7135 2.61883C55.5285 1.8915 54.9487 1.27103 54.2094 1.09898C53.4476 0.921693 52.846 0.990444 52.38 1.24225C51.9148 1.49367 51.6015 1.91859 51.3981 2.42142C51.0017 3.40116 51.0092 4.70887 51.1427 5.74364L42.5026 12.771C41.603 11.7897 39.954 10.369 37.8238 9.18008C35.6328 7.95717 32.9257 6.97556 29.9959 6.97556V7.20961C32.8741 7.20961 35.5418 8.17439 37.7098 9.38445C39.7362 10.5155 41.3199 11.8575 42.2236 12.8147H29.9959V13.0488H42.4347C42.7449 13.4314 43.2002 14.042 43.5992 14.6814C43.9798 15.2912 44.2989 15.9113 44.4029 16.3816ZM38.8425 31.9955C38.4713 32.2718 38.0796 32.5321 37.6664 32.7738C37.8616 33.0025 38.0055 33.3578 38.1148 33.7672C38.2431 34.2479 38.3298 34.8283 38.3865 35.4283L51.5351 46.8298L51.496 46.9105C50.8403 48.2632 51.116 49.6454 51.816 50.5406C52.5166 51.4365 53.6253 51.8313 54.6576 51.2568C55.1197 50.9997 55.4696 50.5647 55.6737 50.0672C55.8779 49.5693 55.9884 48.9758 55.7631 48.485L55.682 48.3083L55.8761 48.3193C56.1602 48.3354 56.5702 48.3476 56.9834 48.2811C57.3979 48.2143 57.8017 48.0705 58.0864 47.7858L58.089 47.7832L58.0917 47.7809C58.9226 47.0464 59.113 45.9116 58.5345 45.1522C57.956 44.393 56.5568 43.9418 54.0697 44.7053L54.0089 44.7239L38.8425 31.9955ZM38.1508 35.422C38.0946 34.8389 38.0103 34.2834 37.8886 33.8275C37.7728 33.3937 37.6283 33.0707 37.4587 32.8926C36.5555 33.3985 35.5532 33.8164 34.4434 34.1213C34.5259 34.8566 34.6233 35.8531 34.6924 36.824C36.2011 36.3917 37.4511 35.8201 38.1508 35.422ZM34.4623 36.8883C34.3944 35.9217 34.2974 34.924 34.2147 34.1822C32.9806 34.4997 31.6171 34.6792 30.113 34.688V37.4208C31.6195 37.4956 33.1326 37.2502 34.4623 36.8883ZM30.113 37.6551C31.6263 37.7287 33.1425 37.4863 34.4785 37.1264C34.4911 37.3186 34.5024 37.5085 34.512 37.6939C34.5443 38.3168 34.5577 38.886 34.5397 39.3162C34.5306 39.5317 34.5139 39.7085 34.4888 39.8381C34.4762 39.9031 34.4622 39.9526 34.4479 39.9878C34.4416 40.0032 34.436 40.0139 34.4317 40.0211C32.7495 40.3848 31.1003 40.4376 30.113 40.3818V37.6551ZM34.7015 39.9601C34.7077 39.9354 34.7134 39.9095 34.7186 39.8826C34.7469 39.7362 34.7643 39.5461 34.7735 39.326C34.792 38.8848 34.7781 38.307 34.7457 37.6818C34.7352 37.4797 34.7228 37.2724 34.7089 37.0627C36.1965 36.6408 37.4397 36.0832 38.1734 35.6776C38.255 36.6772 38.2584 37.7155 38.2328 38.4291C37.2403 39.1768 35.9749 39.6595 34.7015 39.9601Z" fill="#FBFBFB" stroke="#FBFBFB"/>
<path fill-rule="evenodd" clip-rule="evenodd" d="M8.37326 2.50919C8.75478 3.45236 8.74496 4.74537 8.60502 5.77743L8.5962 5.8425L17.3335 12.9488C17.0199 13.3395 16.5793 13.9344 16.1905 14.5575C15.8249 15.1432 15.4956 15.7684 15.37 16.2756L6.19441 8.15178L6.13389 8.16772C3.83648 8.773 2.40127 8.29122 1.70694 7.53164C1.01083 6.77012 1.03447 5.71182 1.67711 5.06755L1.67952 5.06513L1.68179 5.06258C1.92804 4.78505 2.40524 4.62375 2.9326 4.54331C3.45274 4.46397 3.99084 4.46764 4.3256 4.49543L4.46924 4.50736L4.45142 4.36434C4.35127 3.5607 4.40361 3.06201 4.50165 2.67652C4.66721 2.02552 5.18601 1.47726 5.83193 1.32694C6.55407 1.15888 7.09405 1.2304 7.497 1.44816C7.90065 1.66629 8.18355 2.04022 8.37326 2.50919ZM15.5854 16.3816H29.9923V16.6157H15.4582C14.335 16.8668 12.6357 17.295 11.1722 17.7667C10.4373 18.0035 9.76523 18.2503 9.25621 18.4899C9.00151 18.6099 8.791 18.7264 8.63485 18.8373C8.57297 18.8812 8.5219 18.9226 8.48071 18.9613H29.9923V19.1954H15.3849C15.3525 22.6724 16.7681 28.3941 21.2122 31.7528C21.6367 32.0736 22.089 32.373 22.5703 32.6468C23.5016 33.1767 24.5422 33.6114 25.7027 33.9216C26.9817 34.2635 28.4069 34.4543 29.9923 34.4543H30.1094V40.6011L30.0003 40.6085C29.0023 40.6765 27.2526 40.6318 25.4702 40.2418C24.1627 39.9557 22.8294 39.4821 21.7621 38.7239C21.8093 39.8693 22.2378 41.4737 23.3871 42.8247C24.6134 44.2662 26.6697 45.4305 29.9923 45.4305V45.6646C26.609 45.6646 24.4844 44.4759 23.2088 42.9763C21.9378 41.4822 21.519 39.6905 21.5236 38.4908C21.4965 37.7933 21.497 36.766 21.5733 35.7627L8.74128 46.8898C9.38835 48.301 9.09464 49.7409 8.35662 50.6848C7.60496 51.646 6.37565 52.1062 5.21682 51.4613C4.70086 51.1742 4.31878 50.694 4.09808 50.156C3.90655 49.6891 3.7745 49.0982 3.94518 48.5615C3.67191 48.5714 3.32255 48.5693 2.96771 48.5121C2.53139 48.4419 2.07296 48.2864 1.73893 47.9539C0.841391 47.1584 0.598106 45.8893 1.26763 45.0104C1.93248 44.1377 3.44608 43.7159 5.92624 44.463L20.9546 31.8504C16.5242 28.4216 15.119 22.6874 15.1508 19.1954H8.07234L8.13969 19.0334C8.19742 18.8946 8.33113 18.7658 8.4994 18.6464C8.67134 18.5244 8.89556 18.401 9.15651 18.2782C9.67883 18.0322 10.3619 17.7819 11.1004 17.5439C12.484 17.098 14.0743 16.6915 15.1967 16.4349L6.13281 8.40985C3.82272 9.00342 2.30268 8.53027 1.53419 7.68956C0.761599 6.84436 0.77319 5.64488 1.50904 4.90463C1.81444 4.56272 2.3643 4.39324 2.89731 4.31193C3.37033 4.23978 3.85497 4.2336 4.20279 4.25251C4.1223 3.50497 4.17457 3.013 4.27482 2.61883C4.45979 1.8915 5.0396 1.27103 5.77888 1.09898C6.54068 0.921693 7.14231 0.990444 7.60827 1.24225C8.07352 1.49367 8.38683 1.91859 8.59023 2.42142C8.98655 3.40116 8.97909 4.70887 8.84558 5.74364L17.4857 12.771C18.3853 11.7897 20.0343 10.369 22.1644 9.18008C24.3555 7.95717 27.0626 6.97556 29.9923 6.97556V7.20961C27.1142 7.20961 24.4465 8.17439 22.2785 9.38445C20.2521 10.5155 18.6683 11.8575 17.7647 12.8147H29.9923V13.0488H17.5535C17.2434 13.4314 16.7881 14.042 16.3891 14.6814C16.0085 15.2912 15.6894 15.9113 15.5854 16.3816ZM21.1457 31.9955C21.517 32.2718 21.9087 32.5321 22.3219 32.7738C22.1267 33.0025 21.9828 33.3579 21.8735 33.7672C21.7452 34.2479 21.6585 34.8283 21.6018 35.4283L8.45318 46.8298L8.4923 46.9105C9.14796 48.2632 8.87223 49.6454 8.17224 50.5406C7.47169 51.4365 6.36294 51.8313 5.33063 51.2568C4.86857 50.9997 4.51871 50.5647 4.31462 50.0672C4.11038 49.5693 3.9999 48.9758 4.22518 48.485L4.30625 48.3083L4.11222 48.3193C3.82806 48.3354 3.41808 48.3476 3.00491 48.2811C2.5904 48.2143 2.18656 48.0705 1.90185 47.7858L1.8993 47.7832L1.8966 47.7809C1.06567 47.0464 0.875292 45.9116 1.45381 45.1522C2.03225 44.393 3.4315 43.9418 5.91854 44.7053L5.97937 44.7239L21.1457 31.9955ZM21.8375 35.422C21.8936 34.8389 21.978 34.2834 22.0997 33.8275C22.2155 33.3937 22.36 33.0707 22.5296 32.8926C23.4328 33.3985 24.4351 33.8164 25.5449 34.1213C25.4624 34.8566 25.3649 35.8531 25.2958 36.824C23.7872 36.3917 22.5372 35.8201 21.8375 35.422ZM25.5259 36.8883C25.5938 35.9217 25.6908 34.924 25.7736 34.1822C27.0076 34.4997 28.3712 34.6792 29.8753 34.688V37.4208C28.3688 37.4956 26.8557 37.2502 25.5259 36.8883ZM29.8753 37.6551C28.362 37.7287 26.8458 37.4863 25.5098 37.1264C25.4972 37.3186 25.4859 37.5085 25.4763 37.6939C25.444 38.3168 25.4306 38.886 25.4486 39.3162C25.4576 39.5317 25.4744 39.7085 25.4995 39.8381C25.5121 39.9031 25.526 39.9526 25.5404 39.9878C25.5467 40.0032 25.5523 40.0139 25.5566 40.0211C27.2387 40.3848 28.8879 40.4376 29.8753 40.3818V37.6551ZM25.2868 39.9601C25.2806 39.9354 25.2749 39.9095 25.2697 39.8826C25.2414 39.7362 25.224 39.5461 25.2148 39.326C25.1963 38.8848 25.2102 38.307 25.2426 37.6818C25.253 37.4797 25.2655 37.2724 25.2794 37.0627C23.7918 36.6408 22.5485 36.0832 21.8148 35.6776C21.7333 36.6772 21.7299 37.7155 21.7555 38.4291C22.748 39.1768 24.0134 39.6595 25.2868 39.9601Z" fill="#FBFBFB" stroke="#FBFBFB"/>
<path fill-rule="evenodd" clip-rule="evenodd" d="M36.3753 20.9255C33.8541 20.9255 31.82 22.8719 31.82 25.2614C31.82 27.6508 33.8541 29.5973 36.3753 29.5973C38.8965 29.5973 40.9306 27.6508 40.9306 25.2614C40.9306 22.8719 38.8965 20.9255 36.3753 20.9255ZM31.5859 25.2614C31.5859 22.7322 33.7356 20.6914 36.3753 20.6914C39.015 20.6914 41.1647 22.7322 41.1647 25.2614C41.1647 27.7905 39.015 29.8313 36.3753 29.8313C33.7356 29.8313 31.5859 27.7905 31.5859 25.2614Z" fill="#FBFBFB" stroke="#FBFBFB"/>
<path fill-rule="evenodd" clip-rule="evenodd" d="M23.4144 20.9255C20.8932 20.9255 18.8591 22.8719 18.8591 25.2614C18.8591 27.6508 20.8932 29.5973 23.4144 29.5973C25.9356 29.5973 27.9697 27.6508 27.9697 25.2614C27.9697 22.8719 25.9356 20.9255 23.4144 20.9255ZM18.625 25.2614C18.625 22.7322 20.7746 20.6914 23.4144 20.6914C26.0541 20.6914 28.2037 22.7322 28.2037 25.2614C28.2037 27.7905 26.0541 29.8313 23.4144 29.8313C20.7746 29.8313 18.625 27.7905 18.625 25.2614Z" fill="#FBFBFB" stroke="#FBFBFB"/>
<path fill-rule="evenodd" clip-rule="evenodd" d="M29.8633 28.8083C28.8448 28.8083 28.0192 29.6339 28.0192 30.6523C28.0192 31.6708 28.8448 32.4964 29.8633 32.4964C30.8817 32.4964 31.7074 31.6708 31.7074 30.6523C31.7074 29.6339 30.8817 28.8083 29.8633 28.8083ZM27.7852 30.6523C27.7852 29.5046 28.7156 28.5742 29.8633 28.5742C31.011 28.5742 31.9414 29.5046 31.9414 30.6523C31.9414 31.8001 31.011 32.7305 29.8633 32.7305C28.7156 32.7305 27.7852 31.8001 27.7852 30.6523Z" fill="#FBFBFB" stroke="#FBFBFB"/>
<path d="M92.4616 21.1189L93.1016 21.1509L92.9096 23.8709C92.6109 23.7216 92.3229 23.6469 92.0456 23.6469C90.4242 23.6469 89.6029 25.3322 89.5816 28.7029V38.8789H87.1176V21.5989H88.6216L89.3256 24.5429C89.7522 22.2602 90.7976 21.1189 92.4616 21.1189ZM95.3676 21.5989H96.8716L97.5116 24.3829C98.0022 22.2069 99.0902 21.1189 100.776 21.1189C101.906 21.1189 102.77 21.5989 103.368 22.5589C103.965 23.5189 104.264 25.2789 104.264 27.8389V32.6389C104.264 35.1989 103.965 36.9589 103.368 37.9189C102.77 38.8789 101.906 39.3589 100.776 39.3589C99.2182 39.3589 98.1942 38.3562 97.7036 36.3509V44.6389H95.3676V21.5989ZM97.7036 30.2389C97.7036 32.1589 97.8209 33.6736 98.0556 34.7829C98.3116 35.8922 98.5996 36.6069 98.9196 36.9269C99.2396 37.2256 99.6662 37.3749 100.2 37.3749C101.352 37.3749 101.928 36.0522 101.928 33.4069V27.0709C101.928 24.4256 101.362 23.1029 100.232 23.1029C99.7409 23.1029 99.3249 23.2522 98.9836 23.5509C98.6636 23.8496 98.3756 24.5109 98.1196 25.5349C97.8636 26.5589 97.7249 27.9776 97.7036 29.7909V30.2389ZM116.38 27.8389V32.6389C116.38 35.1776 115.986 36.9376 115.196 37.9189C114.428 38.8789 113.319 39.3589 111.868 39.3589C110.439 39.3589 109.33 38.8789 108.54 37.9189C107.772 36.9376 107.388 35.1776 107.388 32.6389V27.8389C107.388 25.3002 107.772 23.5509 108.54 22.5909C109.33 21.6096 110.439 21.1189 111.868 21.1189C113.319 21.1189 114.428 21.6096 115.196 22.5909C115.986 23.5509 116.38 25.3002 116.38 27.8389ZM113.916 33.0869V27.3909C113.916 24.5322 113.244 23.1029 111.9 23.1029C110.514 23.1029 109.82 24.5322 109.82 27.3909V33.0869C109.82 35.9456 110.514 37.3749 111.9 37.3749C113.244 37.3749 113.916 35.9456 113.916 33.0869ZM119.961 21.5989H121.465L122.105 24.3829C122.596 22.2069 123.684 21.1189 125.369 21.1189C126.5 21.1189 127.364 21.5989 127.961 22.5589C128.559 23.5189 128.857 25.2789 128.857 27.8389V32.6389C128.857 35.1989 128.559 36.9589 127.961 37.9189C127.364 38.8789 126.5 39.3589 125.369 39.3589C123.812 39.3589 122.788 38.3562 122.297 36.3509V44.6389H119.961V21.5989ZM122.297 30.2389C122.297 32.1589 122.415 33.6736 122.649 34.7829C122.905 35.8922 123.193 36.6069 123.513 36.9269C123.833 37.2256 124.26 37.3749 124.793 37.3749C125.945 37.3749 126.521 36.0522 126.521 33.4069V27.0709C126.521 24.4256 125.956 23.1029 124.825 23.1029C124.335 23.1029 123.919 23.2522 123.577 23.5509C123.257 23.8496 122.969 24.5109 122.713 25.5349C122.457 26.5589 122.319 27.9776 122.297 29.7909V30.2389ZM140.974 27.8389V32.6389C140.974 35.1776 140.579 36.9376 139.79 37.9189C139.022 38.8789 137.913 39.3589 136.462 39.3589C135.033 39.3589 133.923 38.8789 133.134 37.9189C132.366 36.9376 131.982 35.1776 131.982 32.6389V27.8389C131.982 25.3002 132.366 23.5509 133.134 22.5909C133.923 21.6096 135.033 21.1189 136.462 21.1189C137.913 21.1189 139.022 21.6096 139.79 22.5909C140.579 23.5509 140.974 25.3002 140.974 27.8389ZM138.51 33.0869V27.3909C138.51 24.5322 137.838 23.1029 136.494 23.1029C135.107 23.1029 134.414 24.5322 134.414 27.3909V33.0869C134.414 35.9456 135.107 37.3749 136.494 37.3749C137.838 37.3749 138.51 35.9456 138.51 33.0869ZM145.547 21.5989L148.011 35.0069L150.507 21.5989H152.971L149.355 38.8789H146.699L143.051 21.5989H145.547ZM155.493 38.8789V21.5989H157.957V38.8789H155.493ZM155.397 18.2069V15.1989H158.053V18.2069H155.397ZM170.153 33.8549C169.982 35.9242 169.523 37.3642 168.777 38.1749C168.03 38.9642 167.006 39.3589 165.705 39.3589C164.425 39.3589 163.411 38.9109 162.665 38.0149C161.918 37.0976 161.545 35.5189 161.545 33.2789V27.8389C161.545 25.3002 161.918 23.5509 162.665 22.5909C163.411 21.6096 164.425 21.1189 165.705 21.1189C167.006 21.1189 168.019 21.4709 168.745 22.1749C169.47 22.8789 169.907 24.1482 170.057 25.9829L167.817 26.5909C167.731 24.2656 167.081 23.1029 165.865 23.1029C165.246 23.1029 164.777 23.3802 164.457 23.9349C164.137 24.4896 163.977 25.6416 163.977 27.3909V33.5029C163.977 34.9962 164.137 36.0096 164.457 36.5429C164.798 37.0762 165.278 37.3429 165.897 37.3429C166.515 37.3429 166.995 37.0869 167.337 36.5749C167.678 36.0416 167.923 35.0282 168.073 33.5349L170.153 33.8549ZM172.383 38.8789V35.9349H174.911V38.8789H172.383ZM181.314 39.3589C180.204 39.3589 179.34 38.8789 178.722 37.9189C178.124 36.9376 177.826 35.1776 177.826 32.6389V27.8389C177.826 25.3002 178.124 23.5509 178.722 22.5909C179.34 21.6096 180.204 21.1189 181.314 21.1189C182.85 21.1189 183.895 22.0362 184.45 23.8709V15.1989H186.786V38.8789H185.282L184.514 35.5509C184.087 38.0896 183.02 39.3589 181.314 39.3589ZM184.002 34.8149C184.236 33.7056 184.354 32.1802 184.354 30.2389C184.354 28.2976 184.226 26.7829 183.97 25.6949C183.735 24.5856 183.447 23.8816 183.106 23.5829C182.786 23.2629 182.359 23.1029 181.826 23.1029C180.738 23.1029 180.194 24.4256 180.194 27.0709V33.4069C180.194 34.8789 180.343 35.9136 180.642 36.5109C180.94 37.0869 181.356 37.3749 181.89 37.3749C182.423 37.3749 182.85 37.2256 183.17 36.9269C183.49 36.6069 183.767 35.9029 184.002 34.8149ZM199.285 34.3989C199.136 36.2549 198.698 37.5456 197.973 38.2709C197.248 38.9962 196.192 39.3589 194.805 39.3589C193.44 39.3589 192.352 38.8789 191.541 37.9189C190.752 36.9376 190.357 35.1776 190.357 32.6389V27.8389C190.357 25.3002 190.752 23.5509 191.541 22.5909C192.352 21.6096 193.482 21.1189 194.933 21.1189C196.384 21.1189 197.482 21.5989 198.229 22.5589C198.976 23.5189 199.349 25.2789 199.349 27.8389V31.2629H192.789V33.0869C192.789 35.9456 193.472 37.3749 194.837 37.3749C195.498 37.3749 196.01 37.1402 196.373 36.6709C196.736 36.2016 196.992 35.3269 197.141 34.0469L199.285 34.3989ZM192.789 27.3909V29.2149H196.885V27.3909C196.885 24.5322 196.213 23.1029 194.869 23.1029C193.482 23.1029 192.789 24.5322 192.789 27.3909ZM203.922 21.5989L206.386 35.0069L208.882 21.5989H211.346L207.73 38.8789H205.074L201.426 21.5989H203.922Z" fill="white"/>
</svg>
